<svg viewBox="0 0 21 20" fill="none" xmlns="http://www.w3.org/2000/svg">
  <path
    d="M20.057 13.624l-2.305-9.093a1.256 1.256 0 00-1.016-.928l-2.817-.462a1.267 1.267 0 00-1.426.928l-.017.066a.312.312 0 00.256.385c.646.095 1.284.242 1.907.44a.64.64 0 01.439.757.625.625 0 01-.796.44 12.14 12.14 0 00-7.094-.007.642.642 0 01-.803-.376.625.625 0 01.397-.807c.63-.2 1.276-.35 1.93-.447a.312.312 0 00.256-.385l-.016-.066a1.266 1.266 0 00-1.428-.928l-2.819.463a1.256 1.256 0 00-1.016.927l-2.305 9.093a1.245 1.245 0 00.708 1.446l5.234 2.321a1.264 1.264 0 001.696-.71l.273-.739a.312.312 0 00-.256-.418 12.347 12.347 0 01-2.236-.484.64.64 0 01-.439-.756.626.626 0 01.797-.442c2.32.71 4.8.71 7.12 0a.624.624 0 01.795.442.64.64 0 01-.438.756 12.33 12.33 0 01-2.236.484.312.312 0 00-.255.418l.272.738a1.265 1.265 0 001.696.711l5.235-2.32a1.245 1.245 0 00.707-1.447zM7.908 11.875a.938.938 0 110-1.875.938.938 0 010 1.875zm5.625 0a.938.938 0 110-1.876.938.938 0 010 1.876z"
    fill="#86848D" />
</svg>